<svg xmlns="http://www.w3.org/2000/svg" width="48" height="48" viewBox="0 0 48 48"><g fill="#fff" transform="translate(8.5 -1012.362)"><g transform="matrix(1.92 0 0 1.92 -55.627 981.817)"><circle cx="37.045" cy="28.409" r="12.5" fill="#50b748" fill-rule="evenodd"/></g><path fill="#10a711" fill-rule="evenodd" style="line-height:normal;text-indent:0;text-align:start;text-decoration-line:none;text-decoration-style:solid;text-decoration-color:#000;text-transform:none;block-progression:tb;isolation:auto;mix-blend-mode:normal" d="M 24.986328 47.951172 A 24 24 0 0 0 26.396484 47.880859 A 24 24 0 0 0 28.767578 47.521484 A 24 24 0 0 0 31.091797 46.927734 A 24 24 0 0 0 33.345703 46.105469 A 24 24 0 0 0 35.505859 45.0625 A 24 24 0 0 0 37.550781 43.808594 A 24 24 0 0 0 39.460938 42.355469 A 24 24 0 0 0 41.216797 40.720703 A 24 24 0 0 0 42.800781 38.917969 A 24 24 0 0 0 44.195312 36.966797 A 24 24 0 0 0 45.388672 34.886719 A 24 24 0 0 0 46.369141 32.697266 A 24 24 0 0 0 47.125 30.419922 A 24 24 0 0 0 47.650391 28.080078 A 24 24 0 0 0 47.939453 25.697266 A 24 24 0 0 0 48 24 A 24 24 0 0 0 47.962891 23.259766 L 37.947266 13.244141 C 36.996648 12.293516 35.774032 11.61418 34.408203 11.333984 C 33.952925 11.240586 33.482509 11.191406 33 11.191406 C 30.613516 11.191406 28.504367 12.394156 27.240234 14.222656 C 24.42649 14.467456 22.019901 16.327581 20.976562 18.988281 C 20.694412 18.946281 20.412883 18.893578 20.126953 18.892578 L 20.125 18.892578 C 19.405963 18.892803 18.719845 19.024875 18.085938 19.267578 C 17.45159 19.51045 16.870639 19.863997 16.363281 20.304688 C 15.349064 21.185213 14.630057 22.415156 14.373047 23.816406 C 13.970217 23.714106 13.569054 23.597403 13.152344 23.595703 L 13.150391 23.595703 C 11.729732 23.595753 10.442189 24.180309 9.5097656 25.123047 C 9.2766628 25.358731 9.0660993 25.615684 8.8808594 25.892578 C 8.6952579 26.169836 8.5349328 26.46585 8.4042969 26.777344 C 8.3390785 26.932854 8.2826382 27.091192 8.2324219 27.253906 C 8.0814231 27.742563 8.000015 28.261143 8 28.798828 C 8.000005 28.977841 8.0097343 29.153674 8.0273438 29.328125 C 8.0274731 29.329408 8.0272132 29.330748 8.0273438 29.332031 C 8.0626999 29.679891 8.1322313 30.017369 8.2324219 30.341797 C 8.2578954 30.424283 8.2909268 30.503297 8.3203125 30.583984 C 8.3500929 30.665797 8.3745181 30.750234 8.4082031 30.830078 C 8.4314588 30.885174 8.4690729 30.932218 8.4941406 30.986328 C 8.6102226 31.236972 8.734101 31.483821 8.8867188 31.710938 C 8.968438 31.832571 9.0727123 31.934804 9.1640625 32.048828 C 9.2815135 32.195414 9.3892324 32.349552 9.5214844 32.482422 C 9.5244269 32.485379 9.5263474 32.489238 9.5292969 32.492188 L 24.986328 47.951172 z " color="#000" font-family="sans-serif" font-weight="400" transform="translate(-8.5 1012.362)" white-space="normal"/><path fill-rule="evenodd" style="line-height:normal;text-indent:0;text-align:start;text-decoration-line:none;text-decoration-style:solid;text-decoration-color:#000;text-transform:none;block-progression:tb;isolation:auto;mix-blend-mode:normal" d="m 25,4.1894531 c -2.386484,0 -4.495633,1.2027151 -5.759766,3.03125 -2.813744,0.2448286 -5.220333,2.1049344 -6.263672,4.7656249 -0.28215,-0.042 -0.563679,-0.0947 -0.849609,-0.0957 a 0.50005,0.50005 0 0 0 -0.002,0 c -2.87615,9e-4 -5.2379331,2.121328 -5.7519531,4.923828 -0.40283,-0.1023 -0.8039931,-0.219003 -1.2207031,-0.220703 a 0.50005,0.50005 0 0 0 -0.00195,0 C 2.3090306,16.59385 8e-5,18.932675 0,21.796875 c 8e-5,2.8642 2.3090306,5.201072 5.1503906,5.201172 0.11175,0 0.1939519,-0.01158 0.2636719,-0.01758 -0.0854,0 -0.046303,0.01758 0.1230469,0.01758 l 20.5371096,0 0.388672,0 c 0.45007,0 0.864577,-0.101081 1.242187,-0.238281 C 30.244918,26.025266 31.99763,23.679772 32,21.013672 31.998219,19.129293 31.123472,17.426921 29.742188,16.324219 31.126565,15.044543 32,13.219066 32,11.189453 32,7.3294531 28.86007,4.1894531 25,4.1894531 Z m 0,1 c 3.31963,0 6,2.6804 6,5.9999999 0,1.943303 -0.922055,3.664075 -2.349609,4.759766 -1.011104,0.776052 -2.274023,1.240234 -3.650391,1.240234 -3.31963,0 -6,-2.6803 -6,-6 0,-3.3195999 2.68037,-5.9999999 6,-5.9999999 z M 24.917969,6.96875 C 24.79445,6.99845 24.69335,7.0994688 24.59375,7.1992188 l -2.71875,2.71875 c -0.72322,0.3890002 0.20112,1.3596502 0.625,0.6562502 l 2.03125,-2.0312502 0,6.3750002 c -0.0458,0.6693 0.98332,0.6693 0.9375,0 l 0,-6.3750002 L 27.5,10.574219 c 0.42388,0.7034 1.34822,-0.26725 0.625,-0.6562502 l -2.6875,-2.6875 c -0.0188,-0.023 -0.0398,-0.0435 -0.0625,-0.0625 C 25.187425,6.9804188 25.041487,6.93905 24.917969,6.96875 Z M 18.619141,8.3242188 C 18.224409,9.1998198 18,10.168253 18,11.189453 c 0,3.8601 3.13993,7 7,7 1.459041,0 2.814909,-0.450265 3.9375,-1.216797 1.251329,0.90826 2.060796,2.385249 2.0625,4.042969 -0.003,2.2342 -1.468191,4.187569 -3.587891,4.792969 a 0.50005,0.50005 0 0 0 -0.03516,0.01172 C 27.071263,25.932613 26.771171,26 26.462891,26 l -0.388672,0 -20.5371096,0 c 0.0858,0 0.046103,-0.01563 -0.1230469,-0.01563 a 0.50005,0.50005 0 0 0 -0.035156,0 c -0.1026699,0.01 -0.1785356,0.01367 -0.2285156,0.01367 C 2.8555306,25.997947 1.00006,24.126675 1,21.796875 c 6e-5,-2.3291 1.8544975,-4.201925 4.1484375,-4.203125 0.47862,0 0.9524438,0.08801 1.4023437,0.253906 a 0.50005,0.50005 0 0 0 0.671875,-0.423828 c 0.2324601,-2.5732 2.3539007,-4.531403 4.9003908,-4.533203 0.34687,10e-4 0.693543,0.04103 1.033203,0.115234 a 0.50005,0.50005 0 0 0 0.582031,-0.332031 c 0.745316,-2.266611 2.632766,-3.8962799 4.88086,-4.3496092 z" color="#000" font-family="sans-serif" font-weight="400" overflow="visible" transform="translate(-.5 1019.364)" white-space="normal"/></g></svg>