<svg height="512" viewBox="0 0 64 64" width="512" xmlns="http://www.w3.org/2000/svg" xmlns:xlink="http://www.w3.org/1999/xlink"><linearGradient id="New_Gradient_Swatch_1" gradientUnits="userSpaceOnUse" x1="9" x2="9" y1="1.484" y2="66.869"><stop offset="0" stop-color="#fff33b"/><stop offset=".014" stop-color="#fee72e"/><stop offset=".042" stop-color="#fed51b"/><stop offset=".07" stop-color="#fdca10"/><stop offset=".1" stop-color="#fdc70c"/><stop offset=".4" stop-color="#f3903f"/><stop offset=".8" stop-color="#ed683c"/><stop offset="1" stop-color="#e93e3a"/></linearGradient><linearGradient id="New_Gradient_Swatch_1-2" x1="17" x2="17" xlink:href="#New_Gradient_Swatch_1" y1="1.484" y2="66.869"/><linearGradient id="New_Gradient_Swatch_1-5" x1="25" x2="25" xlink:href="#New_Gradient_Swatch_1" y1="1.484" y2="66.869"/><linearGradient id="New_Gradient_Swatch_1-6" x1="32" x2="32" xlink:href="#New_Gradient_Swatch_1" y1="1.484" y2="66.869"/><linearGradient id="New_Gradient_Swatch_1-12" x1="38" x2="38" xlink:href="#New_Gradient_Swatch_1" y1="1.484" y2="66.869"/><linearGradient id="New_Gradient_Swatch_1-14" x1="44" x2="44" xlink:href="#New_Gradient_Swatch_1" y1="1.484" y2="66.869"/><linearGradient id="New_Gradient_Swatch_1-16" x1="36" x2="36" xlink:href="#New_Gradient_Swatch_1" y1="1.484" y2="66.869"/><linearGradient id="New_Gradient_Swatch_1-17" x1="50" x2="50" xlink:href="#New_Gradient_Swatch_1" y1="1.484" y2="66.869"/><linearGradient id="New_Gradient_Swatch_1-19" x1="43" x2="43" xlink:href="#New_Gradient_Swatch_1" y1="1.484" y2="66.869"/><path d="m12 23a3 3 0 1 0 -3 3 3 3 0 0 0 3-3zm-4 0a1 1 0 1 1 1 1 1 1 0 0 1 -1-1z" fill="url(#New_Gradient_Swatch_1)"/><path d="m17 26a3 3 0 1 0 -3-3 3 3 0 0 0 3 3zm0-4a1 1 0 1 1 -1 1 1 1 0 0 1 1-1z" fill="url(#New_Gradient_Swatch_1-2)"/><path d="m9 36a3 3 0 1 0 3 3 3 3 0 0 0 -3-3zm0 4a1 1 0 1 1 1-1 1 1 0 0 1 -1 1z" fill="url(#New_Gradient_Swatch_1)"/><path d="m17 36a3 3 0 1 0 3 3 3 3 0 0 0 -3-3zm0 4a1 1 0 1 1 1-1 1 1 0 0 1 -1 1z" fill="url(#New_Gradient_Swatch_1-2)"/><path d="m25 36a3 3 0 1 0 3 3 3 3 0 0 0 -3-3zm0 4a1 1 0 1 1 1-1 1 1 0 0 1 -1 1z" fill="url(#New_Gradient_Swatch_1-5)"/><path d="m33 40h-2a1 1 0 0 0 0 2h2a1 1 0 0 0 0-2z" fill="url(#New_Gradient_Swatch_1-6)"/><path d="m9 52a3 3 0 1 0 3 3 3 3 0 0 0 -3-3zm0 4a1 1 0 1 1 1-1 1 1 0 0 1 -1 1z" fill="url(#New_Gradient_Swatch_1)"/><path d="m17 52a3 3 0 1 0 3 3 3 3 0 0 0 -3-3zm0 4a1 1 0 1 1 1-1 1 1 0 0 1 -1 1z" fill="url(#New_Gradient_Swatch_1-2)"/><path d="m25 52a3 3 0 1 0 3 3 3 3 0 0 0 -3-3zm0 4a1 1 0 1 1 1-1 1 1 0 0 1 -1 1z" fill="url(#New_Gradient_Swatch_1-5)"/><path d="m33 52h-2a1 1 0 0 0 0 2h2a1 1 0 0 0 0-2z" fill="url(#New_Gradient_Swatch_1-6)"/><path d="m33 56h-2a1 1 0 0 0 0 2h2a1 1 0 0 0 0-2z" fill="url(#New_Gradient_Swatch_1-6)"/><path d="m39 52h-2a1 1 0 0 0 0 2h2a1 1 0 0 0 0-2z" fill="url(#New_Gradient_Swatch_1-12)"/><path d="m39 56h-2a1 1 0 0 0 0 2h2a1 1 0 0 0 0-2z" fill="url(#New_Gradient_Swatch_1-12)"/><path d="m42 53a1 1 0 0 0 1 1h2a1 1 0 0 0 0-2h-2a1 1 0 0 0 -1 1z" fill="url(#New_Gradient_Swatch_1-14)"/><path d="m45 56h-2a1 1 0 0 0 0 2h2a1 1 0 0 0 0-2z" fill="url(#New_Gradient_Swatch_1-14)"/><path d="m43 34a13.015 13.015 0 0 1 -13-13 1 1 0 0 0 -2 0 15.017 15.017 0 0 0 15 15 1 1 0 0 0 0-2z" fill="url(#New_Gradient_Swatch_1-16)"/><path d="m43 6a1 1 0 0 0 0 2 13.015 13.015 0 0 1 13 13 1 1 0 0 0 2 0 15.017 15.017 0 0 0 -15-15z" fill="url(#New_Gradient_Swatch_1-17)"/><path d="m62 21a18.988 18.988 0 0 0 -37.31-5h-15.69a7.009 7.009 0 0 0 -7 7 7 7 0 0 0 6 6.92v2.158a7 7 0 0 0 -6 6.922 7 7 0 0 0 6 6.92v2.16a7 7 0 0 0 1 13.92h34a7 7 0 0 0 1-13.92v-2.158a7 7 0 0 0 6-6.922c0-.117-.025-.226-.031-.342a19.017 19.017 0 0 0 12.031-17.658zm-35.727 9a18.821 18.821 0 0 0 1.264 2h-17.537v-2zm-22.273-7a5.009 5.009 0 0 1 5-5h15.261a18.346 18.346 0 0 0 1.092 10h-16.353a5.006 5.006 0 0 1 -5-5zm6 25v-2h32v2zm38 7a5.006 5.006 0 0 1 -5 5h-34a5 5 0 0 1 0-10h34a5.006 5.006 0 0 1 5 5zm-1.47-12.464a4.93 4.93 0 0 1 -3.53 1.464h-34a5.006 5.006 0 0 1 -5-5 5.009 5.009 0 0 1 5-5h20.182a18.8 18.8 0 0 0 18.787 5.318 4.918 4.918 0 0 1 -1.439 3.218zm-3.53-4.536a17 17 0 1 1 17-17 17.019 17.019 0 0 1 -17 17z" fill="url(#New_Gradient_Swatch_1-6)"/><path d="m43.708 12.294a1 1 0 0 0 -1.416 0l-5.656 5.656a1 1 0 0 0 1.414 1.414l3.95-3.95v13.586a1 1 0 0 0 2 0v-13.586l3.95 3.95a1 1 0 0 0 1.414-1.414z" fill="url(#New_Gradient_Swatch_1-19)"/></svg>